# xmcd
#
# Track frame offsets:
#	150
#	17489
#	35140
#	90452
#	112043
#	132342
#	159117
#	176610
#	201636
#	215589
#	230990
#	249950
#	264105
#	272580
#	280803
#	300960
#	313720
#	328485
#
# Disc length: 4696 seconds
#
# Revision: 2
# Processed by: cddbd v1.5.2PL0 Copyright (c) Steve Scherf et al.
# Submitted via: EZCDAudioConverter 7.0.6.1
#
DISCID=02125612
DTITLE=Fairport Convention - Come All Ye 3/7
DYEAR=1900
DGENRE=
TTITLE0=Walk Awhile [Live in Concert on Pop Deux 12/5/70]
TTITLE1=Dirty Linen [Live in Concert on Pop Deux 12/5/70]
TTITLE2=Sloth [Live in Concert on Pop Deux 12/5/70]
TTITLE3=Journeyman's Grace [Live in Concert on Pop Deux 12/5/70]
TTITLE4=Sir B. McKenzie [Live in Concert on Pop Deux 12/5/70]
TTITLE5=Flatback Caper [Live at the Troubadour, LA, 1970]
TTITLE6=Doctor Of Physick [Live at the Troubadour, LA, 1970]
TTITLE7=Poor Will And The Jolly Hangman [Guitar, Vocal Version]
TTITLE8=The Bonny Black Hare [Alternate Take]
TTITLE9=Lord Marlborough
TTITLE10=Banks Of The Sweet Primroses
TTITLE11=Breakfast In Mayfair
TTITLE12=Little Did I Think [Live from The Man They Could Not Hang, 1975]
TTITLE13=John Lee [Live from The Man They Could Not Hang, 1975]
TTITLE14=Cell Song [Live from The Man They Could Not Hang, 1975]
TTITLE15=Time Is Near [Live from The Man They Could Not Hang, 1975]
TTITLE16=Dream Song [Live from The Man They Could Not Hang, 1975]
TTITLE17=Farewell To A Poor Man's Son [Live from The Man They Could Not Hang, 
TTITLE17=1975]
EXTD=
EXTT0=
EXTT1=
EXTT2=
EXTT3=
EXTT4=
EXTT5=
EXTT6=
EXTT7=
EXTT8=
EXTT9=
EXTT10=
EXTT11=
EXTT12=
EXTT13=
EXTT14=
EXTT15=
EXTT16=
EXTT17=
PLAYORDER=
